<svg width="48" height="48" viewBox="0 0 48 48" fill="none" xmlns="http://www.w3.org/2000/svg">
<path d="M23.9279 15.7942C23.9582 15.7914 23.9874 15.7879 24.0156 15.7845C24.1091 15.7732 24.1905 15.7633 24.2607 15.7869C24.4222 15.8413 24.6865 15.9302 24.6232 16.0936C24.5426 16.3017 24.2601 16.2833 24.0583 16.2091C23.8873 16.1462 23.6718 16.0497 23.9279 15.7942Z" fill="#2278CA"/>
<path fill-rule="evenodd" clip-rule="evenodd" d="M0 22.4408C0.090404 22.3728 0.126544 22.3098 0.15814 22.2158C0.375838 21.5682 0.75959 21.0289 1.21523 20.521C1.70172 19.9786 2.19681 19.4452 2.72937 18.9511C3.95564 17.8135 5.22009 16.724 6.59002 15.7537C8.05296 14.7175 9.55937 13.7651 11.1836 13.0049C12.8322 12.2333 14.545 11.6374 16.2988 11.1557C17.3782 10.8592 18.4707 10.6283 19.5778 10.459C20.5365 10.3124 21.4974 10.2139 22.4647 10.1349C23.335 10.0638 24.2045 10.0454 25.0659 10.0943C26.2912 10.1638 27.5117 10.3107 28.7277 10.5211C30.4693 10.8224 32.1647 11.2711 33.8289 11.8499C35.7747 12.5268 37.6196 13.4102 39.3748 14.4973C40.7447 15.3458 42.0353 16.2977 43.2999 17.2884C43.6822 17.5878 44.0408 17.9181 44.3988 18.248C44.4784 18.3213 44.5579 18.3945 44.6376 18.4674C44.7182 18.541 44.799 18.6144 44.8799 18.6877L44.8821 18.6897L44.8836 18.6911C45.2548 19.0277 45.6265 19.3648 45.969 19.7289C46.0535 19.8187 46.1389 19.908 46.2244 19.9974C46.7304 20.5265 47.2395 21.0588 47.5755 21.7177C48.1702 22.884 48.1051 24.051 47.3776 25.1319C46.6867 26.1583 45.7838 26.995 44.8805 27.8322C44.7864 27.9194 44.6923 28.0066 44.5985 28.0941C43.6106 29.0142 42.5647 29.8571 41.4804 30.6556C40.5799 31.3189 39.6467 31.9367 38.6774 32.4926C36.9462 33.4855 35.1283 34.2931 33.2282 34.9068C31.5738 35.441 29.8954 35.8745 28.1702 36.1254C27.3078 36.2508 26.4425 36.3213 25.5766 36.3918C25.3248 36.4124 25.0729 36.4329 24.8211 36.4548C24.0646 36.5205 23.3195 36.4747 22.5777 36.4292C22.439 36.4207 22.2995 36.4121 22.161 36.4044C20.8286 36.3297 19.5053 36.1174 18.1945 35.8244C16.7907 35.5107 15.4089 35.1388 14.0514 34.6634C12.1412 33.9945 10.3338 33.1238 8.60597 32.0679C7.26354 31.2475 6.01087 30.3078 4.76331 29.3579C4.39276 29.0757 4.03962 28.7679 3.69917 28.4497L3.69119 28.4422C3.03153 27.8257 2.37108 27.2084 1.73943 26.5636C1.03812 25.8478 0.419223 25.066 0.0275693 24.1068C0 23.5588 0 23.0178 0 22.4408ZM20.8775 25.7318C20.6019 26.2631 20.6879 26.5475 21.1929 26.7956C21.2435 26.8205 21.294 26.8471 21.3446 26.8738C21.5071 26.9596 21.6712 27.0461 21.844 27.0769C22.1643 27.134 22.2266 27.3088 22.19 27.5797C22.183 27.6316 22.1764 27.6837 22.1698 27.7359C22.1497 27.8961 22.1295 28.0564 22.096 28.2138C22.0585 28.3902 21.9972 28.5263 21.7473 28.4975C20.7021 28.377 19.7522 28.0836 19.1242 27.1574C18.7217 26.5638 18.8273 25.926 19.0228 25.3072C19.3512 24.2671 20.2456 23.952 21.1782 23.7164C22.4923 23.3845 23.832 23.3947 25.1709 23.4048C25.3179 23.4059 25.4653 23.4071 25.6123 23.4077C26.007 23.4095 26.394 23.3346 26.7634 23.2259C27.0412 23.1441 27.3182 22.966 27.3493 22.6168C27.3849 22.218 27.2327 21.9108 26.8722 21.7055C26.5109 21.4997 26.1127 21.4302 25.7162 21.3609C25.6595 21.3509 25.6025 21.341 25.5459 21.3307C24.9899 21.2294 24.9256 21.1084 25.1696 20.6108C25.38 20.1816 25.6393 19.942 26.1777 20.0033C27.0554 20.1034 27.9075 20.2941 28.5895 20.8513C29.7209 21.7757 29.859 23.254 28.2495 24.1856C27.3413 24.7113 26.3559 24.9101 25.33 24.9419C24.9564 24.9536 24.5821 24.949 24.208 24.9444C23.7477 24.9387 23.2874 24.9331 22.8288 24.9576C22.1143 24.9957 21.4004 25.1125 20.8775 25.7318ZM26.1297 27.5849C25.9947 27.5555 25.8581 27.5258 25.7202 27.4931C25.2646 27.4297 25.0678 27.6487 24.9502 28.0294C24.9093 28.1616 24.9031 28.2899 24.8968 28.4183C24.8941 28.4753 24.8913 28.5324 24.8855 28.5898C24.8681 28.7618 24.9528 28.778 25.0975 28.8057L25.1066 28.8074C25.2395 28.8328 25.3741 28.8474 25.5088 28.8619C25.8185 28.8953 26.1286 28.9287 26.4194 29.0955C26.768 29.2954 26.8619 29.7596 26.6227 30.041C26.3425 30.3705 25.9712 30.5164 25.583 30.6496C24.8294 30.9081 24.0494 30.9381 23.2698 30.9682C22.9395 30.9809 22.6093 30.9936 22.2812 31.0237C21.8132 31.0666 21.3575 31.1443 20.9187 31.2893C20.377 31.4684 20.0309 31.9075 20.0363 32.335C20.0365 32.3532 20.0339 32.3735 20.0312 32.3942C20.0212 32.4719 20.0102 32.5572 20.1431 32.5737C20.2588 32.5881 20.319 32.5484 20.3723 32.4347C20.576 32.0004 20.9585 31.883 21.4032 31.8804C21.9448 31.8773 22.4847 31.9209 23.0245 31.9645C23.7301 32.0215 24.4357 32.0784 25.1444 32.031C25.9608 31.9764 26.7596 31.8144 27.4888 31.4196C28.1484 31.0626 28.5577 30.5194 28.6619 29.7615C28.7557 29.0795 28.1676 28.2866 27.3745 27.9421C26.9754 27.7688 26.5599 27.6784 26.1297 27.5849ZM22.8386 22.7819C22.7565 22.5902 22.6732 22.4465 22.5238 22.3301C22.323 22.1738 22.3881 21.7808 22.6266 21.6929C22.8466 21.6117 22.8839 21.4666 22.8891 21.2521C22.9008 20.7725 22.8716 20.2944 22.8423 19.8162C22.8109 19.3018 22.7794 18.7872 22.7988 18.2707C22.811 17.9469 22.8837 17.8449 23.1868 18.0073C23.2355 18.0334 23.2894 18.05 23.3431 18.0666C23.3613 18.0722 23.3796 18.0779 23.3975 18.0838L23.4004 18.0848C24.3133 18.3886 24.3157 18.3893 24.346 19.3067C24.3533 19.5264 24.3695 19.7135 24.6672 19.5825C24.7976 19.5251 24.8561 19.6147 24.9063 19.6915C24.9156 19.7059 24.9247 19.7198 24.9339 19.7322C24.9899 19.8078 25.0154 19.8852 24.9424 20.0187C24.6221 20.6051 24.4243 21.2338 24.4197 21.9153C24.4192 21.9904 24.4112 22.0649 24.4032 22.1396C24.3866 22.2951 24.3699 22.4506 24.421 22.6101C24.4795 22.7926 24.3615 22.9228 24.2 22.9302C23.8288 22.9471 23.4563 22.9381 23.0842 22.929L22.9345 22.9254C22.9192 22.9251 22.9045 22.8973 22.8853 22.8611C22.8723 22.8366 22.8573 22.8082 22.8386 22.7819ZM24.2088 29.1231C24.2342 28.7161 24.2659 28.2968 24.4209 27.873C24.412 27.7094 24.479 27.5912 24.5433 27.4777C24.5669 27.4361 24.5901 27.3952 24.609 27.3529C24.6771 27.2013 24.7103 26.9709 24.6251 26.9215C24.3178 26.7432 24.3067 26.4739 24.2957 26.2061C24.2921 26.119 24.2885 26.0321 24.2748 25.9486C24.2493 25.7935 24.191 25.7086 24.0333 25.7192C23.9143 25.7272 23.7955 25.726 23.6766 25.7247C23.4549 25.7224 23.2327 25.72 23.0078 25.7777C22.8081 25.8289 22.7976 25.9093 22.807 26.0571C22.8369 26.5305 22.8059 27.0021 22.7749 27.4736C22.7498 27.8551 22.7247 28.2365 22.7319 28.6189C22.7363 28.8567 22.6436 29.0339 22.4584 29.1719C22.1833 29.3769 22.1633 29.6072 22.4041 29.8214C22.5383 29.9409 22.6584 30.0733 22.7206 30.2427C22.7676 30.3706 22.8458 30.4215 22.9779 30.4184C23.047 30.4167 23.1162 30.4167 23.1853 30.4166C23.4323 30.4165 23.6788 30.4163 23.9225 30.3436C24.0567 30.3036 24.1285 30.2401 24.1145 30.106C24.093 29.8994 24.1264 29.6981 24.1598 29.4966C24.1804 29.3726 24.2009 29.2486 24.2088 29.1231ZM24.8258 14.2607C24.5929 14.8781 24.1235 14.8734 23.6213 14.8683L23.5228 14.8675C23.1246 14.8655 22.87 14.8169 22.6766 14.4013C22.4087 13.8256 21.8298 13.6672 21.27 13.514C21.2211 13.5006 21.1724 13.4873 21.124 13.4737C20.778 13.3767 20.7314 13.2479 21.0098 12.999C21.4128 12.6386 21.9272 12.5861 22.4296 12.6368C22.8241 12.6765 23.1993 12.8259 23.5093 13.1163C23.6704 13.2672 23.8797 13.2481 24.1111 13.1739C24.6111 13.0137 25.1257 12.8572 25.6451 13.151C25.7902 13.2331 25.9044 13.3413 25.9169 13.4878C25.9215 13.541 25.7446 13.622 25.6397 13.67C25.3373 13.8086 25.0693 13.9944 24.8258 14.2607ZM23.7652 32.6323C23.3712 32.4317 22.8675 32.5686 22.678 32.9768C22.5685 33.2116 22.4244 33.3835 22.2638 33.5465C22.2497 33.5609 22.2315 33.5746 22.2129 33.5888C22.1491 33.6373 22.0795 33.6902 22.1437 33.7876C22.2041 33.8794 22.2802 33.9624 22.4192 33.9641C22.8822 33.9698 23.7625 33.3427 23.8711 32.9093C23.897 32.8057 23.9169 32.7096 23.7652 32.6323ZM28.6556 17.1841C28.9673 16.9922 29.2603 16.8118 29.622 16.7511C29.8002 16.7211 29.9224 16.7781 30.0523 16.8387L30.0661 16.8451C30.1514 16.8848 30.2365 16.9753 30.1927 17.0957C30.1585 17.1899 30.0788 17.1781 30.0084 17.1677C29.9927 17.1654 29.9775 17.1632 29.9633 17.1622C29.6707 17.1417 29.4589 17.171 29.6908 17.5299C29.7404 17.6067 29.748 17.6633 29.6776 17.7274C29.5893 17.808 29.4866 17.7941 29.3908 17.7641C29.009 17.6447 28.6213 17.5572 28.204 17.5356C28.2255 17.4096 28.3089 17.3728 28.3977 17.3336C28.4404 17.3147 28.4844 17.2953 28.5233 17.2651C28.5679 17.2381 28.612 17.211 28.6556 17.1841ZM22.4986 20.3215C22.4986 20.3638 22.4982 20.402 22.4978 20.4374C22.497 20.508 22.4964 20.5678 22.4994 20.6274C22.5092 20.8238 22.4763 20.8525 22.2419 20.8277C21.5022 20.7495 20.7675 20.6507 20.0715 20.3934C19.366 20.1327 18.7128 19.7806 18.4797 18.9715C18.2287 18.1002 18.6016 17.2304 19.2156 16.7302C20.1171 15.9959 21.2068 15.7254 22.3303 15.5379C22.6516 15.4843 22.9743 15.4604 23.2961 15.4366C23.4261 15.427 23.5559 15.4174 23.6855 15.4058C24.7648 15.3095 25.7705 15.6552 26.7731 15.9999L26.8774 16.0357C26.945 16.0589 27.0124 16.0836 27.08 16.1083C27.4789 16.2543 27.8811 16.4016 28.3309 16.2483C28.4616 16.2038 28.544 16.2474 28.4486 16.4334C28.3405 16.6442 28.1777 16.7648 27.9797 16.8503C27.8205 16.919 27.6511 16.971 27.4813 17.0068C27.3222 17.0403 27.1857 17.1428 27.1379 17.2579C27.0821 17.3924 27.1903 17.4408 27.293 17.4868C27.3266 17.5019 27.3597 17.5167 27.3861 17.5341C27.6579 17.7134 27.3786 17.8091 27.3095 17.8327L27.3073 17.8335C26.8749 17.9818 26.4242 18.0651 25.9662 18.0057C24.9806 17.8778 24.0462 17.5833 23.1334 17.1835C22.3211 16.8277 21.53 17 20.8221 17.5072C20.5484 17.7034 20.352 17.9823 20.4227 18.3511C20.5041 18.7762 20.8125 19.0152 21.188 19.1605L21.2066 19.1677C21.4669 19.2684 21.7435 19.3755 22.0144 19.3806C22.4582 19.389 22.5084 19.6398 22.4991 19.9771C22.4972 20.0454 22.4976 20.1138 22.4981 20.1929L22.4986 20.3215Z" fill="#2278CA"/>
</svg>
